<svg xmlns="http://www.w3.org/2000/svg" viewBox="0 0 1280 420" role="img" aria-labelledby="title desc">
  <title id="title">fstCC — bootstrap compiler</title>
  <desc id="desc">TT1nKer system archive cover for fstCC.</desc>
  <rect width="1280" height="420" fill="#0B0B0D"/>
  <path d="M0 1H1280M0 419H1280M44 0V420M1236 0V420" stroke="#303036" stroke-width="1"/>
  <path d="M44 78H1236" stroke="#303036" stroke-width="1"/>
  <rect x="44" y="0" width="7" height="78" fill="#3978CC"/>
  <g font-family="ui-monospace, SFMono-Regular, Menlo, Consolas, monospace" font-size="12" font-weight="700" letter-spacing="2.4">
    <text x="72" y="47" fill="#F1EFE7">[ 07 / SYSTEM ARCHIVE ]</text>
    <text x="1208" y="47" fill="#85858D" text-anchor="end">TT1NKER.NET</text>
  </g>
  <g font-family="Arial, Helvetica, sans-serif">
    <text x="72" y="210" fill="#F1EFE7" font-size="96" font-weight="800" letter-spacing="-4">fstCC</text>
    <text x="75" y="256" fill="#929299" font-size="18" font-weight="500" letter-spacing=".5">BOOTSTRAP COMPILER</text>
  </g>
  <g font-family="ui-monospace, SFMono-Regular, Menlo, Consolas, monospace" font-size="11" font-weight="700" letter-spacing="2">
    <text x="74" y="355" fill="#85858D">STATE</text>
    <text x="132" y="355" fill="#3978CC">STAGE 0 / 39 TESTS</text>
    <text x="74" y="384" fill="#85858D">OWNER</text>
    <text x="132" y="384" fill="#F1EFE7">TT1NKER</text>
  </g>
  
      <g fill="none" stroke="#5B5B62" stroke-width="1.5">
        <path d="M760 130H850V180H940V230H1030V280H1130"/>
        <path d="M760 310H850V260H940V210H1030V160H1130"/>
      </g>
      <g fill="#3978CC">
        <rect x="760" y="116" width="90" height="28"/><rect x="850" y="166" width="90" height="28"/>
        <rect x="940" y="216" width="90" height="28"/><rect x="1030" y="266" width="100" height="28"/>
      </g>
      <g fill="#F1EFE7" font-family="ui-monospace,monospace" font-size="13" letter-spacing="2">
        <text x="777" y="135">C/L0</text><text x="871" y="185">AST</text>
        <text x="957" y="235">RV64</text><text x="1049" y="285">BIN</text>
      </g>
</svg>